# xmcd
#
# Track frame offsets: 
#        150
#        29956
#        59533
#        96024
#        131306
#        158365
#        192339
#        227889
#        262406
#        287065
#        322513
#
# Disc length: 4653 seconds
#
# Revision: 0
# Processed by: cddbd v1.5.2PL0 Copyright (c) Steve Scherf et al.
# Submitted via: ExactAudioCopyFreeDBPlugin 1.0
#
DISCID=99122b0b
DTITLE=Lone - Ambivert Tools One​-​Four Japan CD 
DYEAR=2018
DGENRE=Electronic
TTITLE0=Crush Mood
TTITLE1=Chroma
TTITLE2=From A Past Life
TTITLE3=Minds Eye Melody
TTITLE4=Looking Glass
TTITLE5=Temples
TTITLE6=Hyper Seconds
TTITLE7=Pulsar
TTITLE8=Oedo 808
TTITLE9=Blue Moon Tree
TTITLE10=Nightside Loop (Crush Mood Part 2) 
EXTD=
EXTT0=
EXTT1=
EXTT2=
EXTT3=
EXTT4=
EXTT5=
EXTT6=
EXTT7=
EXTT8=
EXTT9=
EXTT10=
PLAYORDER=
